Coordinates
version=1
nRows=32
nColumns=22
inDegrees=yes

Units are S.I. units (second, meters, Newtons, ...)
If the header above contains a line with 'inDegrees', this indicates whether rotational values are in degrees (yes) or radians (no).

endheader
time	pelvis_tilt	pelvis_list	pelvis_rotation	pelvis_tx	pelvis_ty	pelvis_tz	hip_flexion_r	hip_adduction_r	hip_rotation_r	knee_angle_r	ankle_angle_r	subtalar_angle_r	hip_flexion_l	hip_adduction_l	hip_rotation_l	knee_angle_l	ankle_angle_l	subtalar_angle_l	lumbar_extension	lumbar_bending	lumbar_rotation
      0.01000000	      1.83992873	     -1.04997937	      1.65472041	     -1.15332677	      1.08082419	     -0.58265939	     -3.57308398	      2.84409399	     -2.55539808	     -9.07941660	     11.37659911	     -5.02928818	     -2.21741305	     -0.37852184	     -1.45737471	    -12.23241704	     13.83121315	     -0.69040980	     -2.67337879	     -1.43437211	     -4.08128118
      0.02000000	      1.83508584	     -1.08274468	      1.62745386	     -1.15318235	      1.08080255	     -0.58260740	     -3.60835826	      2.88072614	     -2.49025122	     -9.01276322	     11.33937958	     -5.03572137	     -2.21126846	     -0.41346399	     -1.48480716	    -12.25449996	     13.88959907	     -0.69299978	     -2.64099497	     -1.40937301	     -4.05795410
      0.03000000	      1.83329451	     -1.09035413	      1.61134514	     -1.15301529	      1.08078456	     -0.58259901	     -3.63421458	      2.88625603	     -2.50064289	     -8.97494511	     11.34156634	     -5.03677585	     -2.21256690	     -0.41893753	     -1.49296007	    -12.26943379	     13.89297493	     -0.69294110	     -2.61050736	     -1.41253624	     -4.03600402
      0.04000000	      1.83299721	     -1.10973033	      1.58923974	     -1.15282640	      1.08077098	     -0.58255554	     -3.67800076	      2.90797664	     -2.45843926	     -8.90841708	     11.30986972	     -5.03740966	     -2.21510120	     -0.44024925	     -1.52357940	    -12.28734021	     13.91966580	     -0.69501277	     -2.57828029	     -1.40752222	     -4.01695986
      0.05000000	      1.83094547	     -1.11883058	      1.57659508	     -1.15262471	      1.08075261	     -0.58255337	     -3.71165446	      2.91549278	     -2.46581588	     -8.85986853	     11.31154269	     -5.03676507	     -2.21994859	     -0.44788819	     -1.53366888	    -12.29855216	     13.92659549	     -0.69606220	     -2.54238234	     -1.41251422	     -3.99536287
      0.06000000	      1.82749717	     -1.12889970	      1.56449566	     -1.15240921	      1.08073193	     -0.58254585	     -3.75298858	      2.92539402	     -2.45975110	     -8.79512361	     11.30395069	     -5.03376830	     -2.22506725	     -0.45780339	     -1.54944208	    -12.30812834	     13.94025069	     -0.69864867	     -2.50495730	     -1.41621887	     -3.98167891
      0.07000000	      1.82563786	     -1.14126890	      1.55086381	     -1.15219650	      1.08071436	     -0.58254714	     -3.79745251	      2.93724221	     -2.44702116	     -8.72756792	     11.29095745	     -5.02910343	     -2.23325185	     -0.46931023	     -1.56657885	    -12.31558177	     13.95577411	     -0.70180716	     -2.47124998	     -1.41537926	     -3.97212704
      0.08000000	      1.83457956	     -1.16157013	      1.53129599	     -1.15199557	      1.08071220	     -0.58254870	     -3.85590260	      2.95753818	     -2.40696056	     -8.65460264	     11.25663894	     -5.01943454	     -2.25360338	     -0.48892017	     -1.58860628	    -12.32223189	     13.97849824	     -0.70652123	     -2.45460183	     -1.40153356	     -3.96780191
      0.09000000	      1.82993751	     -1.16761391	      1.51906090	     -1.15179158	      1.08068546	     -0.58258547	     -3.88557598	      2.95947548	     -2.42218728	     -8.60938726	     11.26397885	     -5.01768920	     -2.26247778	     -0.49101821	     -1.59976301	    -12.32246545	     13.98349108	     -0.70777605	     -2.42205565	     -1.40203316	     -3.95626973
      0.10000000	      1.83327826	     -1.17931084	      1.51203688	     -1.15157684	      1.08067449	     -0.58260670	     -3.93703211	      2.97153590	     -2.39412364	     -8.54260845	     11.24379418	     -5.00925111	     -2.27929032	     -0.50224976	     -1.61880898	    -12.32269614	     14.00248583	     -0.71236823	     -2.39887071	     -1.40147199	     -3.95611350
      0.11000000	      1.82794198	     -1.18507764	      1.50101477	     -1.15137316	      1.08064686	     -0.58265886	     -3.96157603	      2.97245503	     -2.40531749	     -8.50706295	     11.24883428	     -5.00791697	     -2.28823844	     -0.50349486	     -1.62933784	    -12.32072658	     14.00806389	     -0.71363703	     -2.36934575	     -1.40003278	     -3.94782680
      0.12000000	      1.82134172	     -1.19066994	      1.49333174	     -1.15115811	      1.08061982	     -0.58270274	     -3.98725404	      2.97506827	     -2.40490089	     -8.46868599	     11.24862169	     -5.00604193	     -2.29633007	     -0.50608748	     -1.64243237	    -12.31743559	     14.01851663	     -0.71570585	     -2.33803078	     -1.40279328	     -3.94401372
      0.13000000	      1.81462821	     -1.19707194	      1.48557470	     -1.15093703	      1.08059308	     -0.58275345	     -4.01123155	      2.97841805	     -2.39272327	     -8.43514218	     11.24262888	     -5.00427410	     -2.30471049	     -0.50926207	     -1.65668387	    -12.31338210	     14.03271052	     -0.71807473	     -2.30751628	     -1.40332683	     -3.93892466
      0.14000000	      1.80756951	     -1.20454632	      1.47047475	     -1.15071222	      1.08056656	     -0.58278912	     -4.02951220	      2.98265105	     -2.37675321	     -8.41089797	     11.23641213	     -5.00351495	     -2.31438599	     -0.51342764	     -1.67187635	    -12.30791846	     14.04760826	     -0.71992674	     -2.27845952	     -1.40310426	     -3.93075139
      0.15000000	      1.80635390	     -1.20904888	      1.46057967	     -1.15051522	      1.08054809	     -0.58283792	     -4.03836571	      2.98335418	     -2.37624199	     -8.41371039	     11.23602205	     -5.00355081	     -2.32259423	     -0.51364810	     -1.67156382	    -12.31484247	     14.04882915	     -0.72006350	     -2.26298256	     -1.40637743	     -3.93216705
      0.16000000	      1.79050706	     -1.21890633	      1.41625192	     -1.15025686	      1.08051086	     -0.58283554	     -4.04830425	      2.98843245	     -2.31723736	     -8.38724576	     11.23197805	     -5.00292280	     -2.33585096	     -0.51897939	     -1.71670028	    -12.29292911	     14.08416522	     -0.72128740	     -2.22178973	     -1.40405345	     -3.89294169
      0.17000000	      1.78453959	     -1.22386933	      1.40013313	     -1.15001620	      1.08048548	     -0.58288652	     -4.05544689	      2.98850745	     -2.31851203	     -8.38571881	     11.23846689	     -5.00318592	     -2.34978360	     -0.51916830	     -1.73263148	    -12.28337318	     14.08971277	     -0.72083110	     -2.19689469	     -1.40443475	     -3.89425115
      0.18000000	      1.78265709	     -1.22841950	      1.39188329	     -1.14980322	      1.08046811	     -0.58294203	     -4.06221769	      2.98935674	     -2.31711306	     -8.39137401	     11.23979073	     -5.00303368	     -2.35910038	     -0.51963719	     -1.73415198	    -12.28769675	     14.09162671	     -0.72088198	     -2.18266732	     -1.40942416	     -3.89582532
      0.19000000	      1.77376461	     -1.23250471	      1.36384302	     -1.14956238	      1.08043777	     -0.58298921	     -4.06250718	      2.98710881	     -2.30436587	     -8.39471300	     11.25622903	     -5.00083547	     -2.38017338	     -0.51687172	     -1.76085522	    -12.26052054	     14.11350324	     -0.72213621	     -2.15643911	     -1.40956893	     -3.89763868
      0.20000000	      1.77251611	     -1.23715328	      1.35732256	     -1.14936087	      1.08041822	     -0.58305528	     -4.06821821	      2.98782156	     -2.30081353	     -8.40241887	     11.25800873	     -5.00032397	     -2.38836500	     -0.51710140	     -1.76207985	    -12.26667649	     14.11532315	     -0.72232631	     -2.14588051	     -1.41513504	     -3.89836021
      0.21000000	      1.77225171	     -1.23811507	      1.31267767	     -1.14917324	      1.08039019	     -0.58307914	     -4.06361356	      2.98141910	     -2.24751913	     -8.42935517	     11.30278576	     -4.98720924	     -2.40738721	     -0.51157129	     -1.81428139	    -12.25916738	     14.15219121	     -0.72683128	     -2.14057155	     -1.42211029	     -3.86998136
      0.22000000	      1.77072102	     -1.24279411	      1.30834803	     -1.14897861	      1.08037253	     -0.58317454	     -4.06845520	      2.98063701	     -2.24515813	     -8.43714619	     11.30240558	     -4.98672515	     -2.41508992	     -0.51008233	     -1.81507505	    -12.26439340	     14.15253066	     -0.72697394	     -2.13203259	     -1.42411628	     -3.87528547
      0.23000000	      1.77126787	     -1.24634100	      1.29888941	     -1.14880236	      1.08035455	     -0.58327023	     -4.06694869	      2.97773186	     -2.23090662	     -8.45972045	     11.30928819	     -4.98370899	     -2.42756869	     -0.50650056	     -1.82431731	    -12.26252511	     14.16232313	     -0.72950756	     -2.13120918	     -1.42344742	     -3.90461656
      0.24000000	      1.77044112	     -1.25105209	      1.29849904	     -1.14860153	      1.08033671	     -0.58337949	     -4.07270332	      2.97650147	     -2.22769708	     -8.46898833	     11.31135475	     -4.98308382	     -2.43463876	     -0.50500103	     -1.82433775	    -12.26930946	     14.16410816	     -0.73022522	     -2.12387630	     -1.42569444	     -3.90905536
      0.25000000	      1.77526319	     -1.25310636	      1.29579158	     -1.14843841	      1.08031994	     -0.58349856	     -4.07271321	      2.97165229	     -2.21060157	     -8.49789970	     11.33127127	     -4.97865190	     -2.44483896	     -0.49959373	     -1.82638140	    -12.27863043	     14.18178432	     -0.73614131	     -2.13306575	     -1.42516979	     -3.94595149
      0.26000000	      1.77415468	     -1.25754100	      1.29831599	     -1.14822762	      1.08030072	     -0.58362870	     -4.07939623	      2.96927593	     -2.20824586	     -8.50665333	     11.33411739	     -4.97792332	     -2.45147280	     -0.49703737	     -1.82566357	    -12.28595103	     14.18401332	     -0.73715633	     -2.12607356	     -1.42594993	     -3.94943887
      0.27000000	      1.78114179	     -1.25673092	      1.30700286	     -1.14806057	      1.08028164	     -0.58377744	     -4.08469496	      2.96131500	     -2.19683182	     -8.53291858	     11.36492790	     -4.97092263	     -2.45996064	     -0.48877857	     -1.81934992	    -12.30118751	     14.21066265	     -0.74701868	     -2.14003376	     -1.42839952	     -3.99063240
      0.28000000	      1.77887642	     -1.26102853	      1.30782848	     -1.14784261	      1.08025807	     -0.58391719	     -4.09161342	      2.95806778	     -2.19616634	     -8.53970214	     11.36694072	     -4.97020796	     -2.46641165	     -0.48539889	     -1.81749802	    -12.30826612	     14.21262490	     -0.74795042	     -2.13341417	     -1.42805720	     -3.99358873
      0.29000000	      1.78362974	     -1.25849693	      1.31511044	     -1.14765725	      1.08023628	     -0.58407908	     -4.10005596	      2.94722724	     -2.18987965	     -8.55713077	     11.39185817	     -4.96356136	     -2.47513382	     -0.47362972	     -1.80423153	    -12.32158843	     14.24064268	     -0.75701052	     -2.14363041	     -1.43139232	     -4.03009348
      0.30000000	      1.78024628	     -1.26275481	      1.31992242	     -1.14743609	      1.08020939	     -0.58423061	     -4.10694906	      2.94409962	     -2.18923518	     -8.56290266	     11.39359518	     -4.96290078	     -2.48099899	     -0.47058974	     -1.80285796	    -12.32713090	     14.24251451	     -0.75782028	     -2.13815612	     -1.43154703	     -4.03034142
      0.31000000	      1.78567966	     -1.25903694	      1.33489513	     -1.14723990	      1.08018282	     -0.58440561	     -4.12299368	      2.93293601	     -2.18944900	     -8.56944323	     11.42477153	     -4.95397347	     -2.49034521	     -0.45802729	     -1.78079917	    -12.34154852	     14.27834250	     -0.76922195	     -2.15046151	     -1.43971589	     -4.05314703
      0.32000000	      1.78165910	     -1.26361194	      1.33744405	     -1.14702108	      1.08015514	     -0.58456913	     -4.12921049	      2.92927781	     -2.18886952	     -8.57459445	     11.42550447	     -4.95341433	     -2.49595654	     -0.45403540	     -1.77946065	    -12.34652270	     14.27928797	     -0.76985250	     -2.14654356	     -1.43750730	     -4.05317363
